<svg width="88" height="36" viewBox="0 0 88 36" fill="none" xmlns="http://www.w3.org/2000/svg">
<path d="M3.57955 12.1364C2.98864 12.1364 2.47017 11.9957 2.02415 11.7145C1.58097 11.4332 1.23438 11.0398 0.984375 10.5341C0.737216 10.0284 0.613636 9.4375 0.613636 8.76136C0.613636 8.07955 0.737216 7.48437 0.984375 6.97585C1.23438 6.46733 1.58097 6.07244 2.02415 5.79119C2.47017 5.50994 2.98864 5.36932 3.57955 5.36932C4.17045 5.36932 4.6875 5.50994 5.13068 5.79119C5.5767 6.07244 5.9233 6.46733 6.17045 6.97585C6.42045 7.48437 6.54545 8.07955 6.54545 8.76136C6.54545 9.4375 6.42045 10.0284 6.17045 10.5341C5.9233 11.0398 5.5767 11.4332 5.13068 11.7145C4.6875 11.9957 4.17045 12.1364 3.57955 12.1364ZM3.57955 11.233C4.02841 11.233 4.39773 11.1179 4.6875 10.8878C4.97727 10.6577 5.19176 10.3551 5.33097 9.98011C5.47017 9.60511 5.53977 9.19886 5.53977 8.76136C5.53977 8.32386 5.47017 7.91619 5.33097 7.53835C5.19176 7.16051 4.97727 6.85511 4.6875 6.62216C4.39773 6.3892 4.02841 6.27273 3.57955 6.27273C3.13068 6.27273 2.76136 6.3892 2.47159 6.62216C2.18182 6.85511 1.96733 7.16051 1.82812 7.53835C1.68892 7.91619 1.61932 8.32386 1.61932 8.76136C1.61932 9.19886 1.68892 9.60511 1.82812 9.98011C1.96733 10.3551 2.18182 10.6577 2.47159 10.8878C2.76136 11.1179 3.13068 11.233 3.57955 11.233ZM8.08061 14.4545V5.45455H9.0522V6.49432H9.17152C9.24538 6.38068 9.34766 6.2358 9.47834 6.05966C9.61186 5.88068 9.8022 5.72159 10.0494 5.58239C10.2994 5.44034 10.6374 5.36932 11.0636 5.36932C11.6147 5.36932 12.1005 5.5071 12.521 5.78267C12.9414 6.05824 13.2695 6.44886 13.5053 6.95455C13.7411 7.46023 13.859 8.05682 13.859 8.74432C13.859 9.4375 13.7411 10.0384 13.5053 10.5469C13.2695 11.0526 12.9428 11.4446 12.5252 11.723C12.1076 11.9986 11.6261 12.1364 11.0806 12.1364C10.6602 12.1364 10.3235 12.0668 10.0707 11.9276C9.81783 11.7855 9.62322 11.625 9.48686 11.446C9.3505 11.2642 9.24538 11.1136 9.17152 10.9943H9.08629V14.4545H8.08061ZM9.06925 8.72727C9.06925 9.22159 9.14169 9.65767 9.28658 10.0355C9.43146 10.4105 9.64311 10.7045 9.92152 10.9176C10.1999 11.1278 10.5408 11.233 10.9442 11.233C11.3647 11.233 11.7156 11.1222 11.9968 10.9006C12.2809 10.6761 12.494 10.375 12.636 9.99716C12.7809 9.61648 12.8533 9.19318 12.8533 8.72727C12.8533 8.26705 12.7823 7.85227 12.6403 7.48295C12.5011 7.1108 12.2894 6.81676 12.0053 6.60085C11.7241 6.3821 11.3704 6.27273 10.9442 6.27273C10.5352 6.27273 10.1914 6.37642 9.913 6.58381C9.63459 6.78835 9.42436 7.07528 9.28232 7.4446C9.14027 7.81108 9.06925 8.23864 9.06925 8.72727ZM18.1374 12.1364C17.5067 12.1364 16.9627 11.9972 16.5053 11.7188C16.0508 11.4375 15.6999 11.0455 15.4528 10.5426C15.2085 10.0369 15.0863 9.44886 15.0863 8.77841C15.0863 8.10795 15.2085 7.51705 15.4528 7.00568C15.6999 6.49148 16.0437 6.09091 16.484 5.80398C16.9272 5.5142 17.4442 5.36932 18.0352 5.36932C18.3761 5.36932 18.7127 5.42614 19.0451 5.53977C19.3775 5.65341 19.68 5.83807 19.9528 6.09375C20.2255 6.34659 20.4428 6.68182 20.6048 7.09943C20.7667 7.51705 20.8477 8.03125 20.8477 8.64205V9.06818H15.8022V8.19886H19.8249C19.8249 7.82955 19.7511 7.5 19.6033 7.21023C19.4585 6.92045 19.2511 6.69176 18.9812 6.52415C18.7141 6.35653 18.3988 6.27273 18.0352 6.27273C17.6346 6.27273 17.288 6.37216 16.9954 6.57102C16.7056 6.76705 16.4826 7.02273 16.3263 7.33807C16.1701 7.65341 16.092 7.99148 16.092 8.35227V8.93182C16.092 9.42614 16.1772 9.84517 16.3477 10.1889C16.521 10.5298 16.761 10.7898 17.0678 10.9688C17.3746 11.1449 17.7312 11.233 18.1374 11.233C18.4016 11.233 18.6403 11.196 18.8533 11.1222C19.0692 11.0455 19.2553 10.9318 19.4116 10.7812C19.5678 10.6278 19.6886 10.4375 19.7738 10.2102L20.7454 10.483C20.6431 10.8125 20.4712 11.1023 20.2298 11.3523C19.9883 11.5994 19.69 11.7926 19.3349 11.9318C18.9798 12.0682 18.5806 12.1364 18.1374 12.1364ZM23.3832 8.0625V12H22.3775V5.45455H23.3491V6.47727H23.4343C23.5877 6.14489 23.8207 5.87784 24.1332 5.67614C24.4457 5.47159 24.8491 5.36932 25.3434 5.36932C25.7866 5.36932 26.1744 5.46023 26.5067 5.64205C26.8391 5.82102 27.0977 6.09375 27.2823 6.46023C27.467 6.82386 27.5593 7.28409 27.5593 7.84091V12H26.5536V7.90909C26.5536 7.39489 26.4201 6.99432 26.1531 6.70739C25.886 6.41761 25.5195 6.27273 25.0536 6.27273C24.7326 6.27273 24.4457 6.34233 24.1928 6.48153C23.9428 6.62074 23.7454 6.82386 23.6005 7.09091C23.4556 7.35795 23.3832 7.68182 23.3832 8.0625ZM35.022 6.09375C34.9624 5.88636 34.8786 5.70312 34.7706 5.54403C34.6626 5.3821 34.5305 5.24574 34.3743 5.13494C34.2209 5.02131 34.0447 4.93466 33.8459 4.875C33.6499 4.81534 33.4325 4.78551 33.1939 4.78551C32.7479 4.78551 32.3558 4.89631 32.0178 5.1179C31.6825 5.33949 31.4212 5.66193 31.2337 6.08523C31.0462 6.50568 30.9524 7.01989 30.9524 7.62784C30.9524 8.2358 31.0447 8.75284 31.2294 9.17898C31.4141 9.60511 31.6754 9.9304 32.0135 10.1548C32.3516 10.3764 32.7507 10.4872 33.2109 10.4872C33.6286 10.4872 33.9851 10.4134 34.2805 10.2656C34.5788 10.1151 34.8061 9.90341 34.9624 9.63068C35.1214 9.35795 35.201 9.03551 35.201 8.66335L35.576 8.71875H33.326V7.32955H36.978V8.42898C36.978 9.19602 36.8161 9.85511 36.4922 10.4062C36.1683 10.9545 35.7223 11.3778 35.1541 11.6761C34.5859 11.9716 33.9354 12.1193 33.2024 12.1193C32.3842 12.1193 31.6655 11.9389 31.0462 11.5781C30.4268 11.2145 29.9439 10.6989 29.5973 10.0312C29.2536 9.3608 29.0817 8.56534 29.0817 7.64489C29.0817 6.9375 29.1839 6.30682 29.3885 5.75284C29.5959 5.19602 29.8857 4.72443 30.2578 4.33807C30.63 3.9517 31.0632 3.65767 31.5575 3.45597C32.0518 3.25426 32.5874 3.15341 33.1641 3.15341C33.6584 3.15341 34.1186 3.22585 34.5447 3.37074C34.9709 3.51278 35.3487 3.71449 35.6783 3.97585C36.0107 4.23722 36.282 4.5483 36.4922 4.90909C36.7024 5.26705 36.8374 5.66193 36.897 6.09375H35.022ZM41.3129 12.1278C40.6396 12.1278 40.06 11.9915 39.5742 11.7188C39.0913 11.4432 38.7191 11.054 38.4577 10.5511C38.1964 10.0455 38.0657 9.44744 38.0657 8.7571C38.0657 8.08381 38.1964 7.4929 38.4577 6.98438C38.7191 6.47585 39.087 6.07955 39.5614 5.79545C40.0387 5.51136 40.5984 5.36932 41.2404 5.36932C41.6722 5.36932 42.0742 5.43892 42.4464 5.57812C42.8214 5.71449 43.1481 5.92045 43.4265 6.19602C43.7077 6.47159 43.9265 6.81818 44.0827 7.2358C44.239 7.65057 44.3171 8.13636 44.3171 8.69318V9.19176H38.7901V8.06676H42.6083C42.6083 7.8054 42.5515 7.57386 42.4379 7.37216C42.3242 7.17045 42.1665 7.01278 41.9648 6.89915C41.766 6.78267 41.5344 6.72443 41.2702 6.72443C40.9947 6.72443 40.7504 6.78835 40.5373 6.91619C40.3271 7.04119 40.1623 7.21023 40.043 7.4233C39.9237 7.63352 39.8626 7.8679 39.8597 8.12642V9.19602C39.8597 9.51989 39.9194 9.79972 40.0387 10.0355C40.1609 10.2713 40.3327 10.4531 40.5543 10.581C40.7759 10.7088 41.0387 10.7727 41.3427 10.7727C41.5444 10.7727 41.729 10.7443 41.8967 10.6875C42.0643 10.6307 42.2077 10.5455 42.3271 10.4318C42.4464 10.3182 42.5373 10.179 42.5998 10.0142L44.2788 10.125C44.1935 10.5284 44.0188 10.8807 43.7546 11.1818C43.4933 11.4801 43.1552 11.7131 42.7404 11.8807C42.3285 12.0455 41.8526 12.1278 41.3129 12.1278ZM48.4847 12.1278C47.8114 12.1278 47.2319 11.9915 46.7461 11.7188C46.2631 11.4432 45.891 11.054 45.6296 10.5511C45.3683 10.0455 45.2376 9.44744 45.2376 8.7571C45.2376 8.08381 45.3683 7.4929 45.6296 6.98438C45.891 6.47585 46.2589 6.07955 46.7333 5.79545C47.2106 5.51136 47.7702 5.36932 48.4123 5.36932C48.8441 5.36932 49.2461 5.43892 49.6183 5.57812C49.9933 5.71449 50.32 5.92045 50.5984 6.19602C50.8796 6.47159 51.0984 6.81818 51.2546 7.2358C51.4109 7.65057 51.489 8.13636 51.489 8.69318V9.19176H45.962V8.06676H49.7802C49.7802 7.8054 49.7234 7.57386 49.6097 7.37216C49.4961 7.17045 49.3384 7.01278 49.1367 6.89915C48.9379 6.78267 48.7063 6.72443 48.4421 6.72443C48.1665 6.72443 47.9222 6.78835 47.7092 6.91619C47.4989 7.04119 47.3342 7.21023 47.2148 7.4233C47.0955 7.63352 47.0344 7.8679 47.0316 8.12642V9.19602C47.0316 9.51989 47.0913 9.79972 47.2106 10.0355C47.3327 10.2713 47.5046 10.4531 47.7262 10.581C47.9478 10.7088 48.2106 10.7727 48.5146 10.7727C48.7163 10.7727 48.9009 10.7443 49.0685 10.6875C49.2362 10.6307 49.3796 10.5455 49.4989 10.4318C49.6183 10.3182 49.7092 10.179 49.7717 10.0142L51.4506 10.125C51.3654 10.5284 51.1907 10.8807 50.9265 11.1818C50.6651 11.4801 50.3271 11.7131 49.9123 11.8807C49.5004 12.0455 49.0245 12.1278 48.4847 12.1278ZM54.3185 10.1165L54.3228 7.93892H54.587L56.6836 5.45455H58.7674L55.9506 8.74432H55.5202L54.3185 10.1165ZM52.6737 12V3.27273H54.489V12H52.6737ZM56.7646 12L54.8384 9.14915L56.0487 7.86648L58.891 12H56.7646ZM65.104 7.32102L63.4421 7.4233C63.4137 7.28125 63.3526 7.15341 63.2589 7.03977C63.1651 6.9233 63.0415 6.83097 62.8881 6.76278C62.7376 6.69176 62.5572 6.65625 62.3469 6.65625C62.0657 6.65625 61.8285 6.71591 61.6353 6.83523C61.4421 6.9517 61.3455 7.10795 61.3455 7.30398C61.3455 7.46023 61.408 7.59233 61.533 7.70028C61.658 7.80824 61.8725 7.89489 62.1765 7.96023L63.3612 8.19886C63.9975 8.32955 64.4719 8.53977 64.7844 8.82955C65.0969 9.11932 65.2532 9.5 65.2532 9.97159C65.2532 10.4006 65.1268 10.777 64.8739 11.1009C64.6239 11.4247 64.2802 11.6776 63.8427 11.8594C63.408 12.0384 62.9066 12.1278 62.3384 12.1278C61.4719 12.1278 60.7816 11.9474 60.2674 11.5866C59.756 11.223 59.4563 10.7287 59.3683 10.1037L61.1538 10.0099C61.2077 10.2741 61.3384 10.4759 61.5458 10.6151C61.7532 10.7514 62.0188 10.8196 62.3427 10.8196C62.6609 10.8196 62.9165 10.7585 63.1097 10.6364C63.3058 10.5114 63.4052 10.3509 63.408 10.1548C63.4052 9.99006 63.3356 9.85511 63.1992 9.75C63.0629 9.64205 62.8526 9.55966 62.5685 9.50284L61.435 9.27699C60.7958 9.14915 60.32 8.92756 60.0075 8.61222C59.6978 8.29687 59.543 7.89489 59.543 7.40625C59.543 6.9858 59.6566 6.62358 59.8839 6.3196C60.114 6.01562 60.4364 5.78125 60.8512 5.61648C61.2688 5.4517 61.7575 5.36932 62.3171 5.36932C63.1438 5.36932 63.7944 5.54403 64.2688 5.89347C64.7461 6.2429 65.0245 6.71875 65.104 7.32102ZM66.4304 12V3.27273H68.2756V10.4787H72.017V12H66.4304ZM75.0714 12.1236C74.6538 12.1236 74.2816 12.0511 73.9549 11.9062C73.6282 11.7585 73.3697 11.5412 73.1793 11.2543C72.9918 10.9645 72.8981 10.6037 72.8981 10.1719C72.8981 9.80824 72.9648 9.50284 73.0984 9.25568C73.2319 9.00852 73.4137 8.80966 73.6438 8.65909C73.8739 8.50852 74.1353 8.39489 74.4279 8.31818C74.7234 8.24148 75.033 8.1875 75.3569 8.15625C75.7376 8.11648 76.0444 8.07955 76.2773 8.04545C76.5103 8.00852 76.6793 7.95455 76.7844 7.88352C76.8896 7.8125 76.9421 7.70739 76.9421 7.56818V7.54261C76.9421 7.27273 76.8569 7.06392 76.6864 6.91619C76.5188 6.76847 76.2802 6.6946 75.9705 6.6946C75.6438 6.6946 75.3839 6.76705 75.1907 6.91193C74.9975 7.05398 74.8697 7.23295 74.8072 7.44886L73.1282 7.3125C73.2134 6.91477 73.381 6.57102 73.631 6.28125C73.881 5.98864 74.2035 5.7642 74.5984 5.60795C74.9961 5.44886 75.4563 5.36932 75.979 5.36932C76.3427 5.36932 76.6907 5.41193 77.0231 5.49716C77.3583 5.58239 77.6552 5.71449 77.9137 5.89347C78.1751 6.07244 78.381 6.30256 78.5316 6.58381C78.6822 6.86222 78.7575 7.19602 78.7575 7.58523V12H77.0359V11.0923H76.9847C76.8796 11.2969 76.739 11.4773 76.5629 11.6335C76.3867 11.7869 76.1751 11.9077 75.9279 11.9957C75.6808 12.081 75.3952 12.1236 75.0714 12.1236ZM75.5913 10.8707C75.8583 10.8707 76.0941 10.8182 76.2987 10.7131C76.5032 10.6051 76.6637 10.4602 76.7802 10.2784C76.8967 10.0966 76.9549 9.89062 76.9549 9.66051V8.96591C76.8981 9.00284 76.82 9.03693 76.7205 9.06818C76.6239 9.09659 76.5146 9.12358 76.3924 9.14915C76.2702 9.17187 76.1481 9.19318 76.0259 9.21307C75.9038 9.23011 75.793 9.24574 75.6935 9.25994C75.4805 9.29119 75.2944 9.34091 75.1353 9.40909C74.9762 9.47727 74.8526 9.5696 74.7646 9.68608C74.6765 9.79972 74.6325 9.94176 74.6325 10.1122C74.6325 10.3594 74.7219 10.5483 74.9009 10.679C75.0827 10.8068 75.3129 10.8707 75.5913 10.8707ZM80.1999 12V3.27273H82.0153V6.55398H82.0707C82.1502 6.37784 82.2653 6.19886 82.4158 6.01705C82.5692 5.83239 82.7681 5.67898 83.0124 5.55682C83.2596 5.43182 83.5664 5.36932 83.9329 5.36932C84.4102 5.36932 84.8505 5.49432 85.2539 5.74432C85.6573 5.99148 85.9798 6.36506 86.2212 6.86506C86.4627 7.36222 86.5835 7.9858 86.5835 8.7358C86.5835 9.46591 86.4656 10.0824 86.2298 10.5852C85.9968 11.0852 85.6786 11.4645 85.2752 11.723C84.8746 11.9787 84.4258 12.1065 83.9286 12.1065C83.5763 12.1065 83.2766 12.0483 83.0295 11.9318C82.7852 11.8153 82.5849 11.669 82.4286 11.4929C82.2724 11.3139 82.1531 11.1335 82.0707 10.9517H81.9897V12H80.1999ZM81.9769 8.72727C81.9769 9.11648 82.0309 9.45597 82.1388 9.74574C82.2468 10.0355 82.4031 10.2614 82.6076 10.4233C82.8121 10.5824 83.0607 10.6619 83.3533 10.6619C83.6488 10.6619 83.8988 10.581 84.1033 10.419C84.3079 10.2543 84.4627 10.027 84.5678 9.73722C84.6758 9.4446 84.7298 9.10795 84.7298 8.72727C84.7298 8.34943 84.6772 8.01705 84.5721 7.73011C84.467 7.44318 84.3121 7.21875 84.1076 7.05682C83.9031 6.89489 83.6516 6.81392 83.3533 6.81392C83.0579 6.81392 82.8079 6.89205 82.6033 7.0483C82.4016 7.20455 82.2468 7.42614 82.1388 7.71307C82.0309 8 81.9769 8.33807 81.9769 8.72727Z" fill="white"/>
<rect x="66" y="15" width="10" height="10" fill="#E02828"/>
<rect x="77" y="15" width="10" height="10" fill="#E02828"/>
<rect x="77" y="26" width="10" height="10" fill="#E02828"/>
</svg>
