<svg width="24" height="24" viewBox="0 0 24 24" fill="none" xmlns="http://www.w3.org/2000/svg">
<path d="M8.67001 10.909L10.545 12.783C10.611 12.8495 10.6895 12.9023 10.776 12.9383C10.8625 12.9743 10.9553 12.9929 11.049 12.9929C11.1427 12.9929 11.2355 12.9743 11.322 12.9383C11.4085 12.9023 11.487 12.8495 11.553 12.783L15.33 9.00598" stroke="#A5835E" stroke-width="1.5" stroke-linecap="round" stroke-linejoin="round"/>
<path d="M20.672 11.89V6.60995C20.672 6.20483 20.5445 5.80999 20.3076 5.48136C20.0707 5.15274 19.7364 4.90699 19.352 4.77895L14.438 3.13995C12.8544 2.61888 11.1456 2.61888 9.562 3.13995L4.648 4.77795C4.26381 4.90594 3.92961 5.15153 3.69272 5.47996C3.45582 5.80838 3.32823 6.203 3.328 6.60795V11.888C3.32819 13.1913 3.65877 14.4733 4.28885 15.6142C4.91894 16.7551 5.82797 17.7177 6.931 18.412L10.979 20.956C11.2853 21.1469 11.639 21.2481 12 21.2481C12.361 21.2481 12.7147 21.1469 13.021 20.956L17.068 18.412C18.1711 17.7179 19.0802 16.7555 19.7105 15.6148C20.3407 14.4741 20.6715 13.1922 20.672 11.889" stroke="#A5835E" stroke-width="1.5" stroke-linecap="round" stroke-linejoin="round"/>
</svg>
