<svg width="24" height="24" viewBox="0 0 24 24" fill="none" xmlns="http://www.w3.org/2000/svg">
<path d="M15.08 2.75195H8.92C8.40198 2.72681 7.89494 2.90695 7.5089 3.2533C7.12287 3.59964 6.88898 4.08425 6.858 4.60195V10.679C6.87721 11.6785 7.16903 12.6539 7.70195 13.4998C8.23487 14.3457 8.98866 15.0301 9.882 15.479C10.5344 15.825 11.2616 16.0059 12 16.0059C12.7384 16.0059 13.4656 15.825 14.118 15.479C15.0113 15.0301 15.7651 14.3457 16.2981 13.4998C16.831 12.6539 17.1228 11.6785 17.142 10.679V4.60195C17.111 4.08425 16.8771 3.59964 16.4911 3.2533C16.1051 2.90695 15.598 2.72681 15.08 2.75195Z" stroke="#A5835E" stroke-width="1.5" stroke-linecap="round"/>
<path d="M17.142 4.602H19.196C19.7125 4.57929 20.2172 4.76053 20.6013 5.10663C20.9854 5.45272 21.218 5.93593 21.249 6.452C21.2461 7.6118 20.9466 8.75159 20.379 9.763C19.7849 10.8088 18.9553 11.7017 17.956 12.371L17.142 12.926L16.347 13.407M6.85801 4.602H4.80401C4.2875 4.57929 3.78277 4.76053 3.3987 5.10663C3.01463 5.45272 2.782 5.93593 2.75101 6.452C2.75401 7.612 3.05301 8.752 3.62101 9.763C4.21507 10.8088 5.04468 11.7017 6.04401 12.371L6.85801 12.926L7.65301 13.407M9.94701 18.475V15.506M14.053 18.475V15.506M8.81001 18.475H15.19C15.4464 18.4747 15.7004 18.525 15.9373 18.6231C16.1743 18.7211 16.3896 18.8648 16.5709 19.0461C16.7522 19.2275 16.896 19.4427 16.994 19.6797C17.092 19.9166 17.1423 20.1706 17.142 20.427V20.76C17.142 20.89 17.0904 21.0146 16.9985 21.1065C16.9066 21.1984 16.782 21.25 16.652 21.25H7.34801C7.21805 21.25 7.09342 21.1984 7.00152 21.1065C6.90963 21.0146 6.85801 20.89 6.85801 20.76V20.427C6.85774 20.1707 6.90802 19.9168 7.00596 19.6799C7.1039 19.443 7.24759 19.2278 7.42879 19.0465C7.61 18.8652 7.82517 18.7214 8.06201 18.6233C8.29884 18.5253 8.55268 18.4749 8.80901 18.475H8.81001Z" stroke="#A5835E" stroke-width="1.5" stroke-linecap="round"/>
<path d="M12.143 10.308L13.323 10.928C13.3729 10.9539 13.4291 10.9654 13.4851 10.9612C13.5412 10.9569 13.595 10.9371 13.6404 10.904C13.6859 10.8708 13.7211 10.8256 13.7422 10.7735C13.7634 10.7214 13.7695 10.6644 13.76 10.609L13.534 9.29597C13.5255 9.24759 13.5289 9.19785 13.5441 9.15112C13.5593 9.10439 13.5857 9.0621 13.621 9.02797L14.576 8.09797C14.6171 8.05905 14.6463 8.00932 14.6603 7.95451C14.6743 7.8997 14.6725 7.84205 14.6552 7.7882C14.6378 7.73436 14.6056 7.68652 14.5622 7.65021C14.5188 7.61389 14.4661 7.59058 14.41 7.58297L13.091 7.39297C13.043 7.38575 12.9974 7.36696 12.9582 7.33822C12.919 7.30948 12.8874 7.27164 12.866 7.22797L12.263 6.02297C12.2381 5.97234 12.1995 5.9297 12.1516 5.89988C12.1037 5.87005 12.0484 5.85425 11.992 5.85425C11.9356 5.85425 11.8803 5.87005 11.8324 5.89988C11.7845 5.9297 11.7459 5.97234 11.721 6.02297L11.119 7.22797C11.0976 7.27177 11.0658 7.30968 11.0264 7.33843C10.9871 7.36718 10.9413 7.3859 10.893 7.39297L9.59302 7.58297C9.53685 7.59032 9.48389 7.61338 9.44024 7.64948C9.39659 7.68559 9.36401 7.73328 9.34625 7.78707C9.3285 7.84087 9.32628 7.89858 9.33986 7.95358C9.35344 8.00857 9.38226 8.05862 9.42302 8.09797L10.378 9.02797C10.4135 9.062 10.4401 9.10425 10.4555 9.15098C10.4708 9.19772 10.4744 9.24751 10.466 9.29597L10.24 10.609C10.2296 10.6645 10.2351 10.7219 10.2559 10.7745C10.2766 10.827 10.3118 10.8727 10.3574 10.9061C10.4029 10.9395 10.457 10.9594 10.5134 10.9635C10.5698 10.9675 10.6261 10.9556 10.676 10.929L11.856 10.309C11.9 10.285 11.9494 10.2724 11.9995 10.2724C12.0497 10.2724 12.099 10.285 12.143 10.309" stroke="#A5835E" stroke-width="1.5" stroke-linecap="round" stroke-linejoin="round"/>
</svg>
