<svg width="24" height="24" viewBox="0 0 24 24" fill="none" xmlns="http://www.w3.org/2000/svg">
<path d="M17.928 19.634H20.066C20.2541 19.6369 20.44 19.5943 20.608 19.5097C20.776 19.4252 20.9211 19.3012 21.0307 19.1484C21.1404 18.9956 21.2114 18.8185 21.2378 18.6323C21.2641 18.446 21.245 18.2562 21.182 18.079C20.6368 16.9121 19.7738 15.9226 18.6918 15.2239C17.6098 14.5252 16.3528 14.1457 15.065 14.129M15.065 11.37C15.5462 11.3701 16.0228 11.2754 16.4675 11.0914C16.9121 10.9073 17.3161 10.6374 17.6565 10.2972C17.9968 9.95692 18.2668 9.55296 18.451 9.10836C18.6352 8.66375 18.73 8.18722 18.73 7.70597C18.7313 7.22389 18.6375 6.74628 18.4539 6.30052C18.2703 5.85476 18.0005 5.44962 17.66 5.10831C17.3196 4.76701 16.9151 4.49624 16.4698 4.31155C16.0245 4.12685 15.5471 4.03184 15.065 4.03197M9.34 11.485C10.4417 11.4823 11.4974 11.0427 12.2755 10.2627C13.0535 9.48257 13.4903 8.42572 13.49 7.32397C13.49 6.22306 13.0527 5.16724 12.2742 4.38877C11.4957 3.61031 10.4399 3.17297 9.339 3.17297C8.23809 3.17297 7.18226 3.61031 6.4038 4.38877C5.62534 5.16724 5.188 6.22306 5.188 7.32397C5.188 8.42572 5.62505 9.48247 6.40325 10.2624C7.18146 11.0423 8.23726 11.4816 9.339 11.484M14.025 20.827C14.3772 20.8265 14.7225 20.7285 15.0224 20.5439C15.3224 20.3593 15.5654 20.0952 15.7246 19.781C15.8837 19.4668 15.9528 19.1146 15.9241 18.7635C15.8954 18.4125 15.7701 18.0762 15.562 17.792C14.8331 16.8244 13.8948 16.0344 12.8173 15.4809C11.7398 14.9274 10.551 14.6249 9.34 14.596C8.12891 14.625 6.94009 14.9277 5.86258 15.4813C4.78506 16.035 3.84678 16.8253 3.118 17.793C2.91066 18.0772 2.7859 18.4132 2.75751 18.7639C2.72912 19.1146 2.79819 19.4663 2.95711 19.7802C3.11603 20.0941 3.3586 20.358 3.65805 20.5427C3.9575 20.7274 4.30217 20.8258 4.654 20.827H14.025Z" stroke="#A5835E" stroke-width="1.5" stroke-linecap="round" stroke-linejoin="round"/>
</svg>
